<mxfile host="Electron" agent="Mozilla/5.0 (Windows NT 10.0; Win64; x64) AppleWebKit/537.36 (KHTML, like Gecko) draw.io/28.1.2 Chrome/138.0.7204.243 Electron/37.4.0 Safari/537.36" version="28.1.2">
  <diagram name="PÃ¡gina-1" id="WW7yCPoPPmGtkWFh-Mp4">
    <mxGraphModel dx="588" dy="716" grid="1" gridSize="10" guides="1" tooltips="1" connect="1" arrows="1" fold="1" page="1" pageScale="1" pageWidth="827" pageHeight="1169" math="0" shadow="0">
      <root>
        <mxCell id="0" />
        <mxCell id="1" parent="0" />
        <mxCell id="p_O0mI_7FBRGtDM9fTur-1" value="" style="rounded=0;whiteSpace=wrap;html=1;movable=0;resizable=0;rotatable=0;deletable=0;editable=0;locked=1;connectable=0;" vertex="1" parent="1">
          <mxGeometry x="214" y="335" width="400" height="500" as="geometry" />
        </mxCell>
        <mxCell id="p_O0mI_7FBRGtDM9fTur-20" style="edgeStyle=orthogonalEdgeStyle;rounded=0;orthogonalLoop=1;jettySize=auto;html=1;exitX=0.5;exitY=0.5;exitDx=0;exitDy=0;exitPerimeter=0;entryX=0;entryY=0.5;entryDx=0;entryDy=0;" edge="1" parent="1" source="p_O0mI_7FBRGtDM9fTur-2" target="p_O0mI_7FBRGtDM9fTur-19">
          <mxGeometry relative="1" as="geometry" />
        </mxCell>
        <mxCell id="p_O0mI_7FBRGtDM9fTur-2" value="Empleado" style="shape=umlActor;verticalLabelPosition=bottom;verticalAlign=top;html=1;outlineConnect=0;" vertex="1" parent="1">
          <mxGeometry x="150" y="430" width="30" height="60" as="geometry" />
        </mxCell>
        <mxCell id="p_O0mI_7FBRGtDM9fTur-12" style="edgeStyle=orthogonalEdgeStyle;rounded=0;orthogonalLoop=1;jettySize=auto;html=1;exitX=0.5;exitY=0.5;exitDx=0;exitDy=0;exitPerimeter=0;" edge="1" parent="1" source="p_O0mI_7FBRGtDM9fTur-3" target="p_O0mI_7FBRGtDM9fTur-7">
          <mxGeometry relative="1" as="geometry" />
        </mxCell>
        <mxCell id="p_O0mI_7FBRGtDM9fTur-14" style="edgeStyle=orthogonalEdgeStyle;rounded=0;orthogonalLoop=1;jettySize=auto;html=1;exitX=0.75;exitY=0.1;exitDx=0;exitDy=0;exitPerimeter=0;entryX=0;entryY=0.5;entryDx=0;entryDy=0;" edge="1" parent="1" source="p_O0mI_7FBRGtDM9fTur-3" target="p_O0mI_7FBRGtDM9fTur-13">
          <mxGeometry relative="1" as="geometry" />
        </mxCell>
        <mxCell id="p_O0mI_7FBRGtDM9fTur-3" value="Secretaria" style="shape=umlActor;verticalLabelPosition=bottom;verticalAlign=top;html=1;outlineConnect=0;" vertex="1" parent="1">
          <mxGeometry x="150" y="680" width="30" height="60" as="geometry" />
        </mxCell>
        <mxCell id="p_O0mI_7FBRGtDM9fTur-5" value="servidor obra social" style="shape=umlActor;verticalLabelPosition=bottom;verticalAlign=top;html=1;outlineConnect=0;" vertex="1" parent="1">
          <mxGeometry x="660" y="540" width="30" height="60" as="geometry" />
        </mxCell>
        <mxCell id="p_O0mI_7FBRGtDM9fTur-6" value="" style="endArrow=block;endSize=16;endFill=0;html=1;rounded=0;exitX=0.5;exitY=0;exitDx=0;exitDy=0;exitPerimeter=0;" edge="1" parent="1" source="p_O0mI_7FBRGtDM9fTur-3" target="p_O0mI_7FBRGtDM9fTur-2">
          <mxGeometry width="160" relative="1" as="geometry">
            <mxPoint x="210" y="530" as="sourcePoint" />
            <mxPoint x="370" y="530" as="targetPoint" />
          </mxGeometry>
        </mxCell>
        <mxCell id="p_O0mI_7FBRGtDM9fTur-7" value="Alta de empleado" style="ellipse;whiteSpace=wrap;html=1;" vertex="1" parent="1">
          <mxGeometry x="260" y="700" width="80" height="40" as="geometry" />
        </mxCell>
        <mxCell id="p_O0mI_7FBRGtDM9fTur-9" style="edgeStyle=orthogonalEdgeStyle;rounded=0;orthogonalLoop=1;jettySize=auto;html=1;exitX=0;exitY=0.5;exitDx=0;exitDy=0;" edge="1" parent="1" source="p_O0mI_7FBRGtDM9fTur-8" target="p_O0mI_7FBRGtDM9fTur-7">
          <mxGeometry relative="1" as="geometry" />
        </mxCell>
        <mxCell id="p_O0mI_7FBRGtDM9fTur-10" value="extends" style="edgeLabel;html=1;align=center;verticalAlign=middle;resizable=0;points=[];" vertex="1" connectable="0" parent="p_O0mI_7FBRGtDM9fTur-9">
          <mxGeometry x="-0.2455" y="1" relative="1" as="geometry">
            <mxPoint as="offset" />
          </mxGeometry>
        </mxCell>
        <mxCell id="p_O0mI_7FBRGtDM9fTur-8" value="Verificar agente ensuamrios" style="ellipse;whiteSpace=wrap;html=1;" vertex="1" parent="1">
          <mxGeometry x="374" y="770" width="100" height="50" as="geometry" />
        </mxCell>
        <mxCell id="p_O0mI_7FBRGtDM9fTur-13" value="asociar obra social" style="ellipse;whiteSpace=wrap;html=1;" vertex="1" parent="1">
          <mxGeometry x="260" y="630" width="80" height="40" as="geometry" />
        </mxCell>
        <mxCell id="p_O0mI_7FBRGtDM9fTur-16" style="edgeStyle=orthogonalEdgeStyle;rounded=0;orthogonalLoop=1;jettySize=auto;html=1;exitX=0;exitY=0.5;exitDx=0;exitDy=0;entryX=0.5;entryY=0;entryDx=0;entryDy=0;" edge="1" parent="1" source="p_O0mI_7FBRGtDM9fTur-15" target="p_O0mI_7FBRGtDM9fTur-13">
          <mxGeometry relative="1" as="geometry" />
        </mxCell>
        <mxCell id="p_O0mI_7FBRGtDM9fTur-17" value="uses" style="edgeLabel;html=1;align=center;verticalAlign=middle;resizable=0;points=[];" vertex="1" connectable="0" parent="p_O0mI_7FBRGtDM9fTur-16">
          <mxGeometry x="-0.1344" relative="1" as="geometry">
            <mxPoint as="offset" />
          </mxGeometry>
        </mxCell>
        <mxCell id="p_O0mI_7FBRGtDM9fTur-21" style="edgeStyle=orthogonalEdgeStyle;rounded=0;orthogonalLoop=1;jettySize=auto;html=1;exitX=0;exitY=0;exitDx=0;exitDy=0;entryX=1;entryY=0.5;entryDx=0;entryDy=0;" edge="1" parent="1" source="p_O0mI_7FBRGtDM9fTur-15" target="p_O0mI_7FBRGtDM9fTur-19">
          <mxGeometry relative="1" as="geometry" />
        </mxCell>
        <mxCell id="p_O0mI_7FBRGtDM9fTur-22" value="uses" style="edgeLabel;html=1;align=center;verticalAlign=middle;resizable=0;points=[];" vertex="1" connectable="0" parent="p_O0mI_7FBRGtDM9fTur-21">
          <mxGeometry x="-0.1067" y="-2" relative="1" as="geometry">
            <mxPoint as="offset" />
          </mxGeometry>
        </mxCell>
        <mxCell id="p_O0mI_7FBRGtDM9fTur-15" value="Conectarse al servidor de obra social" style="ellipse;whiteSpace=wrap;html=1;" vertex="1" parent="1">
          <mxGeometry x="364" y="540" width="120" height="60" as="geometry" />
        </mxCell>
        <mxCell id="p_O0mI_7FBRGtDM9fTur-18" value="" style="endArrow=none;html=1;rounded=0;exitX=1;exitY=0.5;exitDx=0;exitDy=0;" edge="1" parent="1" source="p_O0mI_7FBRGtDM9fTur-15" target="p_O0mI_7FBRGtDM9fTur-5">
          <mxGeometry width="50" height="50" relative="1" as="geometry">
            <mxPoint x="400" y="550" as="sourcePoint" />
            <mxPoint x="450" y="500" as="targetPoint" />
          </mxGeometry>
        </mxCell>
        <mxCell id="p_O0mI_7FBRGtDM9fTur-19" value="Regularizacion de deuda" style="ellipse;whiteSpace=wrap;html=1;" vertex="1" parent="1">
          <mxGeometry x="264" y="420" width="100" height="50" as="geometry" />
        </mxCell>
      </root>
    </mxGraphModel>
  </diagram>
</mxfile>
